<?xml version="1.0" encoding="UTF-8"?>
<svg id="Layer_1" data-name="Layer 1" xmlns="http://www.w3.org/2000/svg" viewBox="0 0 1920 1080">
  <defs>
    <style>
      .cls-1 {
        fill: #efe2d7;
        opacity: .61;
        stroke-width: 0px;
      }
    </style>
  </defs>
  <path class="cls-1" d="M1269.59,175.39c19.82,2.42,40.31,1.19,60.34-.47,18.56-1.54,37.31-3.8,53.07-16.18,24.62-19.34,42.34-45.01,57.74-70.92,15.99-26.92,22.28-57,23.84-87.83h-60.85c8.01,14.62,13.52,31.77,16.84,51.48,8.7,51.62-32.88,100.82-72.96,109.47-19.69,4.25-40.62,6.37-61.4,5.06-7.47-.47-14.28-1.52-20.41-5.74-49.36-33.94-53.3-84.46-10.14-125.98,7.64-7.35,17.63-10.22,25.91.84,25.69,34.29,65.71,28.19,101.81,37.74-5.59-18.62-16.08-31.47-28.75-42.51-32.46-28.26-100.45-29.35-124.42,14.19-11.81,21.45-20.8,41.43-15.19,67.17,4.96,22.75,32.68,61,54.58,63.67Z"/>
  <path class="cls-1" d="M454.71,0c1.12,12.71,3.68,25.29,6.02,37.66,4.72,25.04,14.79,48.04,30.62,70.33,25.39,35.75,49.34,68.61,97.75,70.11,25.3.79,51.53,7.89,75.25-5.6,32.24-18.33,47.56-55.36,40.12-92.35-7.02-34.91-37.49-63.39-67.71-66.08-56.13-5-90.38,28.87-98.62,60.42,13.36,4.09,24.12-7.11,37.17-6.09,22.52,1.77,40.73-7.76,56.46-23.18,18.22-17.87,31.87-15.85,45.35,6.37,2.87,4.72,6.17,9.2,8.78,14.06,11.32,21.06,12.47,43.88.47,63.48-12.77,20.86-27.46,42.81-58.22,40.22-12.7-1.07-25.4-2.12-38.08-3.17-36.7-3.02-70.36-28.55-84.73-62.76-11.87-28.27-5.92-71.02,13.86-103.44h-64.49Z"/>
  <path class="cls-1" d="M1723.27,0c-1.68,4.1-3.15,8.34-4.39,12.72-3.96,14.05-8.89,15.42-20.57,15.24-35.89-.54-70.71,6.61-102.06,23.76-36.26,19.83-63.28,51.08-88.24,83.18-30.36,39.06-63.98,72.95-110.25,93.2-58.62,25.65-117.13,26.3-175.42,1.13-19.75-8.53-37.91-22.04-49.6-40.3-9.6-15-18.23-30.89-25.26-47.86-15.98-38.55-19.26-73.11-1.43-114.28,4.23-9.77,9.57-18.68,15.75-26.79h-19.37c-13.16,54.86-69.75,112.96-124.64,125.24,18.79-31.43,32.98-62.58,29.12-100.38,31.45,3.25,58.98-8.23,85.21-24.86h-23.98c-1.25.62-2.48,1.25-3.7,1.88-19.67,10.19-40.78,16.61-63.76,9.31-6.67-2.12-12.32-4.84-16.37-10.16-.28-.36-.56-.7-.85-1.03h-12.8c-1.17,2.58.16,5.75,1.86,8.83,1.89,3.42,3.11,7.2,6.97,8.97,12.72,5.81,16.16,16.87,14.14,29.09-4.54,27.35-11.23,54.33-31.66,74.79-10.47,10.49-21.35,17.1-38.64,8.25-12.89-6.6-30.31-2.95-40.45-18.24-13.53-20.41-23.56-41.43-19.71-64.52-.49-17.7-1.5-33.31,7.46-47.17h-30.75c-17.95,10.86-38.56,10.89-59.35,4.3-3.93-1.24-7.67-2.68-11.23-4.3h-24.23c33.32,22.5,67.94,29.53,106.27,7.11-5.09,42.71-6.13,83.12,24.93,117.63-53.54-7.24-120.93-69.66-136.46-124.74h-20.61c11.67,13.69,20.1,29.64,24.26,47.51,14.72,63.29-9.28,117.72-54.75,162.58-43.19,42.61-98.9,46.67-152.83,38.08-67.99-10.83-120.57-50.79-161.72-106.89-25.3-34.5-54.15-67.24-93.03-87.47-32.27-16.79-67.67-22.93-104.12-22.89-4.98,0-12.79,4.22-14.08-6.41-1.02-8.46-3.4-16.68-6.87-24.5h-24.51c6.75,10.86,11.36,23.48,13.6,37.64,2.36,14.91,8.54,14.59,20.53,12.3,16.95-3.24,34.45-3.15,51.59.19,56.1,10.93,92.7,49.8,128.27,90.05,3.32,3.76,6.49,7.65,9.64,11.55,3.18,3.93,7.08,7.56,6.78,13.53-1.53-.37-2.62-.51-3.61-.9-43.74-17.3-87.38-19.62-129.36,4.21-19.34,10.98-30.22,29.13-29.3,52.23,1.69,42.3,50.66,69.48,87.31,48.37,13.19-7.6,15.58-21.6,13.27-34.79-1.94-11.12-12.38-13.92-23.17-14.98-9.81-.97-12.99,3.02-15.58,11.91-2.9,9.95,1.12,14.82,8.7,18.78,3.9,2.03,8.11,3.45,13.03,5.51-21.34,12.92-46.41,9.24-59.93-7.59-14.21-17.69-13.25-42.22,2.68-59.14,16.21-17.22,36.38-16.46,58.65-16.94,47.52-1.04,85.22,19.03,122.35,44.53,23.13,15.89,46.59,32.78,72.36,43.04,57.08,22.72,116.47,28.13,174.52,3.33,33.57-14.34,61.7-36.66,75.96-72.66,15.3-38.62,32.56-76.58,32.24-122.17,5.12,4.73,7.71,6.75,9.87,9.16,26.69,29.78,60.01,48.54,97.76,60.8,24.21,7.87,32.73,30.11,43.46,52.51-38.58-23.54-68.71-9.36-96.23,18.39,16.15,14.14,35.5,17.46,56.51,13.28,10.23-2.03,20.3-4.94,30.36-7.75,3.09-.86,5.59-.76,7.23,1.99,2.1,3.52-1.33,4.53-3.26,6.12-8.14,6.71-10.79,15.49-11.73,25.85-2.62,28.63,15.16,51.39,21.26,77.46,1.17,5,6.67,6.24,10.9,6.34,4.97.11,4.76-4.78,5.87-8.56,1.86-6.29,4.45-12.42,7.3-18.34,11.94-24.78,18.8-49.41,4.14-76-4.82-8.75-.92-12.37,10.01-10.34,21.37,3.98,42.02,1.11,59.92-12.73,3.9-3.01,8.68-5.56,8.85-11.45.24-8.06-7.45-5.94-11.13-7.32-25.02-9.35-50.39-17.9-77.82-6.65,25.9-33.62,26.03-33.31,62.07-48.52,14.77-6.23,28.73-14.12,42.29-22.97,13.9-9.07,23.04-23.45,37.86-32.69,5.04,21.56,3.41,43.27,13.87,62.41,4.19,7.67,7.71,16.01,9.77,24.48,11.2,46.25,41.07,77.98,83.11,94.99,74.21,30.02,145.79,19.23,213.55-22.78,32.33-20.04,62.14-44.34,98.22-58.21,21.31-8.19,43.63-6.22,65.51-8.91,22.34-2.75,40.06,2.7,54.43,19.15,14.89,17.05,13.94,42.87-1.41,59.14-14.81,15.69-39.4,17.97-57.83,4.77,5.06-1.8,10.13-2.72,14.2-5.25,7.18-4.45,9.97-9.84,7.08-19.66-2.7-9.17-6.43-11.44-14.8-10.51-12.31,1.37-23.46,3.91-24.17,19.42-.84,18.46,9.51,32.64,25.88,34.65,7.19.89,14.65-.52,21.84.36,38.31,4.68,65.56-50.91,47.77-80.27-17.81-29.4-44.39-38.07-74.71-41.19-28.3-2.91-56.16.47-85.37,15.26,16.08-26.77,35.77-44.88,54.52-63.76,41.39-41.67,89.14-65.19,149.7-52.8,8.59,1.76,14.79-.36,15.96-11.59,1.01-9.69,3.73-19.86,8.31-28.42,1.46-2.72,2.97-5.35,4.54-7.87h-24.28Z"/>
  <path class="cls-1" d="M1864.77,154.79c36.65-36.12,58.87-78.44,54.73-131.86-.62-7.98-1.62-15.65-3.32-22.93h-15.84c.94,8.24.22,17.41-2.29,27.39-3.32,13.22-8.19,28.49-22.51,35.28-24.39,11.56-60.83-7.56-65.16-34.32-1.82-11.21,2.96-20.61,10.66-28.35h-17.06c-.07.1-.15.19-.22.29-8.98,12.82-8.5,38.94,1.42,50.13,14.16,15.96,30.16,25.81,53.49,25.62,21.2-.17,36.35-5.84,45.56-25.79-8.16,60.25-13.05,59.97-60.76,58.1-23.03-.9-37.8,11.66-50.31,27.9-5.07,6.59-8.18,14.84-19.52,23.04,20.07,0,35.09,1.51,49.68-.36,20.35-2.62,30-22.63,49.38-35.93-12.71,20.83-27.1,33.74-40.64,47.4-12.11,12.22-24.57,23.71-31.45,40.51-11.89,29.03-7.22,55.65,15.41,75.06,21.72,18.63,56.06,20.8,79.32,4.81,12.39-8.52,17.3-22.58,23.41-35.12,4.69-9.62-6.51-26.34-16.95-29.1-10.76-2.85-27.73,4.35-29.52,13.46-2.96,15.01,6.61,20.93,19.24,24.02,1.34.33,2.48,1.45,3.78,2.24-15.01,19.82-33.21,24.54-51.61,13.85-24.26-14.1-32.94-36.48-26.33-58.2,8.53-28.05,27.52-47.49,47.43-67.11Z"/>
  <path class="cls-1" d="M143.99,159.9c-7.67-4.62-11.19-9.95-14.65-15.61-12.68-20.72-29.61-34.49-55.79-32.46-7.81.6-15.73.52-23.54-.04-8.22-.59-16.95-1.48-21.79-9.45-8.8-14.48-11.24-30.75-12.17-48.55,10.01,26.9,31.55,26.19,53.37,24.87.56-.03,1.12,0,1.68,0,29.98-.42,55.44-29.99,51.01-59.24-1.1-7.3-4.33-13.91-8.84-19.4h-18.47c.52.38,1.04.79,1.56,1.22,9.61,8.02,15.65,18.52,12.83,31.69-3.69,17.16-21.2,32.99-37.99,35.18-24.97,3.26-30.56-.77-43.77-23.08-5.82-9.82-7.63-28.81-5.32-45.02H4.43C-2.39,27.44-1.13,55.59,6.76,83.45c8.8,31.09,29.09,54.52,50.71,76.75,17.9,18.41,35.56,36.06,44.07,61.55,5.27,15.79,4.84,30.12-4.05,42.82-18.41,26.27-51.79,37.18-72.32,4.09,6.28-2.06,12.83-3.4,17.83-8.2,6.66-6.38,7.67-14.03,2.5-20.98-7.49-10.06-19.32-13.3-29.91-8.26-10.15,4.83-19.08,15.68-14.19,27.4,5.5,13.17,12.03,26.33,24.23,36.3,22.62,18.49,44.03,10.69,66.36.8,21.58-9.56,42.49-41.91,31.51-70.36-6.08-15.76-12.88-30.4-25.69-41.93-9.16-8.25-17.82-17.1-26.18-26.17-7.74-8.4-14.79-17.45-22.14-26.21.96-1.51,1.91-3.03,2.87-4.54,22.01,34.36,52.5,42.97,91.62,33.39Z"/>
</svg>