<?xml version="1.0" encoding="UTF-8"?>
<svg id="Layer_1" data-name="Layer 1" xmlns="http://www.w3.org/2000/svg" viewBox="0 0 1920 1080">
  <defs>
    <style>
      .cls-1 {
        fill: #efe2d7;
        opacity: .39;
        stroke-width: 0px;
      }
    </style>
  </defs>
  <path class="cls-1" d="M1560.01,464.36c-.19-10.87-1.98-20.4-6.77-29.11-4.38-7.97-12.17-8.78-20.09-8.89-12.27-.17-24.61,1.55-35.12-8.02-7.36-6.69-10.74-16.05-18.33-22.75,11.38-1.38,21.84-2.65,32.7.21,11.49,3.02,15.92,14.49,27.01,20.38-10.62-15.68-23.15-27.3-35.2-39.34-7.25-7.25-11.77-16.34-13.34-25.96-5.29-32.37,26.45-50.66,53.13-46.38,9.43,1.51,25.38,22.62,25.99,32.14.53,8.26-4.86,12.59-11.21,14.49-7.07,2.11-14.63.65-18.23-6.97-4.34-9.18,3.24-13.89,9.41-15.74,8.21-2.45,3.89-4.79,1.13-7.23-9.53-8.45-22.14-8.21-34.79.36-9.78,6.63-15.25,21.48-11.81,31.62,4.71,13.87,12.04,25.64,22.7,36.16,13.51,13.34,26.78,27.27,34.91,45.05,10.18,22.26,10.45,45.74,4.17,68.2-5.18,18.53-22.45,27.21-40.13,32.69-37.71,11.69-80.02-14.62-84.98-53.55-.86-6.73-5.83-4.14-8.96-4.05-21.47.61-41.86-3.61-61.61-11.93-8.88-3.75-16.75-8.81-23.64-15.38-20.02-19.1-37.81-40.14-55.56-61.38-16.64-19.91-38.79-33.29-63.35-42.59-35.2-13.33-69.52-11.83-103.2,4.49-21.37,10.35-33.81,28.28-43.21,49.65-8.27,18.8-15.72,37.77-11.38,58.09,5.41,25.33,20.06,45.56,42.75,58.66,34.55,19.94,70.17,23.96,105.47,2.29,35.92-22.06,55.23-87.77,1.44-121.8-5.03-3.18-10.54-4.56-15.87-5.03-14.02-1.25-28.34-6.36-42.08-2.52-20.96,5.87-41.55,35.3-29.47,60.87,3.27,6.92,7.43,13.54,11.99,19.69,5.53,7.45,13.66,7.97,19.89,1.52,12.05-12.49,26.22-19.74,43.88-18.94,7.16.33,13.37-6.36,21.27-3.26-9.17,22.13-25.73,33.98-48.05,38.91-14.74,3.26-36.2-5.03-45.98-17.06-13.2-16.24-17.01-34.29-12.83-54.45,2.85-13.77,27.74-34.17,41.74-34.94,14.26-.79,28.31,1.27,42.34,2.67,17.82,1.78,30.52,13.76,40.18,27.18,16.21,22.53,32.16,45.37,32.47,75.53.13,12.25,2.44,24.4-.41,36.69-.68,2.92-.7,7.34,1.01,9.14,2.69,2.83,6.73.47,9.68-1.31,14.69-8.91,29.86-15.47,47.73-12.73,4.14.64,8.24.74,12.35,2.13,14.71,5,28.47,12.46,43.84,16.17-23.28,8.59-45.25,20.24-70.37,20.43-9.14.07-16.24-5.78-24.1-9.64-6.03-2.96-12.67-10.84-18.94-6.29-4.73,3.43.25,11.85.47,18.03.93,26.66-1.6,53.41-15.36,76.49-9.81,16.45-21.1,32.74-36.77,45.01-10.03,7.85-21.95,9.27-33.74,10.22-12.73,1.03-25.75,1.79-38.35.23-13.92-1.73-31.49-26.06-34.62-40.52-3.54-16.37,2.2-29.05,9.73-42.67,15.28-27.64,58.49-26.88,79.09-8.88,8.04,7.03,14.69,15.21,18.22,27.05-22.93-6.1-48.37-2.28-64.65-24.09-5.25-7.04-11.6-5.23-16.46-.56-27.47,26.33-25.03,58.45,6.31,80.07,3.89,2.69,8.21,3.36,12.96,3.67,13.2.86,26.5-.47,39.02-3.15,25.48-5.45,51.95-36.67,46.48-69.49-6.44-38.64-26.08-61.99-65.05-69.57-37.92-7.37-90.48,10.18-109.36,53.57-11.38,26.14-9.33,48.11.78,72.63,4.45,10.79,9.92,20.9,16,30.44,7.41,11.62,18.94,20.23,31.48,25.67,37.01,16.06,74.2,15.72,111.48-.52,29.42-12.82,50.83-34.31,70.17-59.1,15.89-20.38,33.1-40.2,56.17-52.76,19.94-10.86,42.08-15.37,64.88-14.98,7.42.12,10.55-.74,13.09-9.66,12.31-43.38,60.28-65.61,104.43-38.06,17.1,10.67,21.67,26.43,23.06,44.77,2.57,33.96-11.6,60.82-34.93,83.74-12.67,12.45-24.77,24.78-30.22,42.6-4.22,13.8,1.27,28.03,16.67,37.02,11.68,6.82,23.26,3.84,32.82-8.74-.82-.5-1.55-1.22-2.4-1.43-8.02-1.98-14.09-5.75-12.2-15.29,1.15-5.79,11.94-10.34,18.78-8.52,6.63,1.77,13.73,12.4,10.74,18.51-3.9,7.96-7.04,16.89-14.92,22.29-14.8,10.14-36.62,8.72-50.4-3.15-14.36-12.36-17.3-29.28-9.71-47.72,4.39-10.67,12.32-17.96,20.03-25.71,8.62-8.66,17.78-16.85,25.88-30.07-12.33,8.43-18.49,21.14-31.42,22.78-9.27,1.18-18.82.2-31.57.18,7.22-5.2,9.2-10.44,12.43-14.62,7.97-10.3,17.37-18.27,32-17.67,30.32,1.24,33.43,1.43,38.68-36.85-5.88,12.67-15.51,16.25-28.98,16.34-14.82.1-24.98-6.18-33.96-16.34-6.29-7.12-6.57-23.72-.84-31.86,7.66-10.89,18.7-14.77,29.4-10.42,4,1.62,8.86,3.74,6.24,8.61-2.65,4.93-5.54,1.31-8.97-1.22-3.73-2.75-9.19-2.86-13.49.83-6.16,5.27-10.32,11.9-9.01,20.04,2.73,17.01,25.86,29.2,41.37,21.88,9.11-4.3,12.22-14,14.35-22.4,6.1-24.12-3.99-40.84-27.88-45.74-31.58-6.47-55.64,5.29-70.63,33.17-2.92,5.43-4.66,11.89-5.31,18.05-.76,7.14-4.7,8.48-10.16,7.35-38.47-7.94-68.84,6.95-95.19,33.39-11.94,11.98-24.47,23.46-34.72,40.46,18.58-9.37,36.28-11.48,54.27-9.6,19.26,2.01,36.15,7.55,47.43,26.26,11.27,18.68-6.11,53.98-30.45,50.96-4.57-.57-9.31.32-13.88-.25-10.4-1.3-16.96-10.32-16.41-22.05.47-9.85,7.56-11.46,15.38-12.31,5.33-.58,7.69.86,9.4,6.69,1.83,6.24.05,9.67-4.52,12.49-2.59,1.6-5.81,2.18-9.03,3.32,11.7,8.41,27.33,6.99,36.76-2.97,9.77-10.32,10.41-26.73.96-37.58-9.11-10.47-20.37-13.95-34.57-12.23-13.91,1.69-28.09.41-41.64,5.59-22.94,8.77-41.92,24.18-62.49,36.88-43.11,26.62-88.61,33.4-135.74,14.24-26.7-10.85-45.64-31.05-52.71-60.46-1.29-5.38-3.52-10.69-6.18-15.57-6.63-12.18-5.56-25.97-8.75-39.68-9.42,5.85-15.25,14.98-24.09,20.73-8.63,5.61-17.51,10.61-26.9,14.55-22.92,9.63-23,9.43-39.5,30.77,17.45-7.12,33.56-1.66,49.45,4.31,2.34.88,7.23-.46,7.07,4.66-.12,3.74-3.16,5.36-5.64,7.27-11.39,8.77-24.52,10.58-38.1,8.03-6.95-1.31-9.43.99-6.37,6.56,9.28,16.91,4.9,32.56-2.72,48.29-1.82,3.76-3.47,7.65-4.66,11.65-.71,2.4-.58,5.51-3.74,5.43-2.69-.07-6.18-.86-6.92-4.04-3.85-16.57-15.12-31.06-13.43-49.25.61-6.59,2.3-12.16,7.49-16.41,1.23-1.01,3.41-1.65,2.08-3.88-1.04-1.75-2.62-1.82-4.59-1.27-6.4,1.78-12.8,3.61-19.3,4.89-13.36,2.63-25.65.5-35.9-8.5,17.52-17.6,36.68-26.58,61.18-11.58-6.8-14.25-12.18-28.39-27.56-33.42-23.98-7.83-45.13-19.8-62.06-38.75-1.37-1.53-3.01-2.82-6.26-5.83.16,28.97-10.86,53.08-20.62,77.6-9.1,22.86-27,37.02-48.35,46.09-36.92,15.7-74.66,12.19-110.9-2.31-16.37-6.55-31.26-17.31-45.94-27.43-23.56-16.25-47.5-29.05-77.7-28.44-14.15.29-26.96-.22-37.29,10.7-10.14,10.73-10.78,26.32-1.77,37.58,8.58,10.71,24.5,13.08,38.08,4.89-3.13-1.31-5.8-2.22-8.27-3.52-4.82-2.52-7.37-5.62-5.51-11.94,1.66-5.65,3.68-8.17,9.91-7.55,6.85.69,13.49,2.48,14.71,9.55,1.45,8.39-.08,17.28-8.47,22.09-23.31,13.38-54.41-3.96-55.43-30.84-.56-14.68,6.38-26.21,18.68-33.16,26.7-15.1,54.43-13.57,82.21-2.53.63.25,1.32.34,2.29.57.2-3.79-2.28-6.1-4.3-8.6-2-2.48-4.01-4.96-6.12-7.35-22.56-25.62-45.78-50.36-81.42-57.37-10.89-2.14-22-2.22-32.78-.18-7.62,1.44-11.55,1.64-13.03-7.84-3.74-23.94-18.13-40.94-40.52-48.53-19.03-6.45-38.8-5.25-56,7.95-8.89,6.82-10.03,34.43-3.74,45.09,8.37,14.19,11.92,16.76,27.79,14.71,10.67-1.38,21.82-11.41,24.18-22.32,1.81-8.37-2.02-15.04-8.12-20.15-5.24-4.39-10.83-5.03-16.14.84-2.3,2.54-5.58,1.61-7.17-1.29-2.13-3.89,1.47-6.01,3.82-7.56,12.94-8.55,33.31,2.7,35.83,19.59,2.78,18.59-13.43,37.35-32.48,37.59-.36,0-.71-.02-1.07,0-13.86.81-27.55,1.25-33.89-15.86.57,11.32,2.1,21.65,7.68,30.87,3.07,5.07,8.62,5.64,13.84,6.03,4.96.37,10,.43,14.96.05,16.64-1.26,27.39,7.51,35.42,20.69,2.19,3.6,4.43,6.99,9.29,9.94-24.87,6.05-44.23.54-58.18-21.32-.61.96-1.22,1.92-1.83,2.88,4.66,5.58,9.13,11.33,14.04,16.68,5.3,5.77,10.79,11.41,16.61,16.66,8.12,7.34,12.43,16.65,16.28,26.68,6.95,18.1-6.38,38.63-20.1,44.68-14.2,6.26-27.82,11.19-42.17-.58-7.74-6.35-11.88-14.72-15.36-23.09-3.1-7.46,2.59-14.34,9.05-17.4,6.74-3.19,14.25-1.12,19,5.28,3.28,4.42,2.63,9.28-1.61,13.33-3.19,3.04-7.35,3.89-11.34,5.19,13.01,21.05,34.24,14.16,45.96-2.52,5.67-8.06,5.96-17.17,2.62-27.21-5.38-16.2-16.58-27.44-27.94-39.16-13.71-14.15-26.58-29.06-32.14-48.83-5.38-19.14-5.86-38.49-.24-57.24,6.16-20.56,24.45-27.79,42.9-33.6,36.28-11.42,77.82,17.96,82.07,53.6.81,6.75,5.78,4.09,8.94,4.09,23.17.01,45.66,3.95,66.14,14.66,24.68,12.9,42.98,33.74,59.02,55.69,26.08,35.7,59.45,61.15,102.65,68.11,34.26,5.52,69.67,3,97.16-24.03,28.94-28.46,44.26-63.02,34.97-103.26-5.34-23.16-21.96-41.28-44.32-52.44-34.57-17.26-68.91-20.88-103.26.69-27.72,17.41-39.9,61.46-29.23,86.98,9.09,21.75,30.45,38.02,53.77,39.98,8.06.68,16.13,1.36,24.2,2.06,19.55,1.68,28.9-12.26,37.04-25.5,7.65-12.44,6.94-26.95-.23-40.34-1.65-3.09-3.75-5.94-5.57-8.94-8.54-14.14-17.21-15.43-28.81-4.1-10.01,9.78-21.6,15.82-35.9,14.67-8.29-.67-15.14,6.44-23.62,3.83,5.27-20.04,27.07-41.52,62.74-38.28,19.2,1.74,38.53,19.88,42.96,42.07,4.69,23.52-5.09,47.03-25.6,58.64-15.09,8.55-31.75,4-47.83,3.47-30.76-1.01-45.94-21.92-62.04-44.67-10.04-14.19-16.41-28.81-19.38-44.73-2.99-16.02-6.6-32.57-1.8-49.27,1.04-3.61,2.54-9.09-1.39-11.82-3.53-2.46-7.32,1-10.77,2.66-2.86,1.37-6.22,2.24-8.46,4.3-14.61,13.38-32.31,9.51-48.15,6.21-15.43-3.21-29.82-11.61-45.94-16.18,18.36-12.15,58.4-22.58,78.57-18.84,8.54,1.59,16.23,7.71,24.36,11.66,3.44,1.67,7.48,4.91,10.8,2.24,3.1-2.49,1.72-7.43,1.1-11.17-4.9-29.52-.56-58.42,14.07-83.59,9.03-15.54,19.01-32.09,34.52-43.4,7.57-5.52,15.91-9.7,24.94-10.43,13.36-1.08,26.66-3.22,40.22-2.56,9.76.48,17.41,3.91,24.62,10.43,30.47,27.57,23.44,58.26,1.97,83.87-8.87,10.58-36.35,16.87-54.34,8.96-16.62-7.31-28.83-18.28-35.89-35.2.71-2.12,3-2.05,4.32-1.53,9.25,3.65,19.19,5.04,28.74,5.56,13.92.76,22.66,9.16,31.22,17.69,7.43,7.39,14.85,5.2,19.36-.46,11.16-14.04,21.8-29.16,14.36-48.92-8.41-22.34-24.01-37.58-47-33.16-9.42,1.81-18.85,1.53-28.26,3.25-24.46,4.46-52.15,38.09-46.36,70.37,6.37,35.48,26,59.05,61.72,68.02,34.44,8.65,84.51-8.15,104.92-38.36,10.94-16.18,18.38-32.07,16.89-51.58-1.42-18.59-9.42-35.01-17.12-51.56-25.67-55.16-103.26-61.58-146.71-41.84-32.28,14.66-55.85,37.58-77.95,64.39-22.54,27.35-46.53,54.62-84.94,60.93-11.87,1.95-23.65,3.98-35.71,3.19-5.81-.38-8.3.35-10.03,7.85-9.74,42.2-56.89,66.1-98.67,43.88-30.5-16.22-30.85-37.58-28.38-70.76,2.13-28.64,21.16-47.7,39.17-66.93,10.22-10.92,20.13-21.29,24.53-36.27,3.29-11.21.71-25.22-8.44-32.65-11.78-9.56-25.01-10.79-35.81-2.81-2.99,2.21-9.03,5.06.36,8.4,6.37,2.26,13.07,7.04,8.71,16.1-3.03,6.29-13.91,9.06-20.59,5.62-8.15-4.2-11.05-11.37-6.95-19.21,6.64-12.7,13.01-26.16,30.26-26.86,20.2-.82,35.43,7.68,45.11,25.48,6.42,11.79.86,34.73-11.11,46.87-12.08,12.26-24.83,23.89-34.38,39.31,14.99-19.44,34.27-26.04,58.78-20.33-6,7.63-11.03,15.59-17.61,21.95-6.33,6.12-14.31,9.58-23.96,9.04-29.7-1.67-34.98,1.53-39.83,36.69,4.53-.43,4.49-4.94,6.44-7.32,9.95-12.13,34.54-12.02,50.1.6,14.13,11.47,16.22,28.51,5.16,42.03-7.35,8.98-17.33,11.1-28.2,7.33-3.78-1.31-4.87-3.72-5.96-6.47-.73-1.82,1.08-3.27,2.65-4.13,3.37-1.83,4.6.96,6.79,2.79,6.82,5.7,12.69,1.41,17.42-3.36,7.16-7.23,7.3-17.74,1.25-26.44-7.09-10.2-22.93-16.73-33.34-13.74-9.29,2.67-16.97,17.33-18.69,29.65-4.79,34.31,25.63,43.98,52.13,41.18,18.77-1.99,31.49-13.02,42.91-26.31,6.1-7.1,8.03-16.58,9.23-25.26,1.1-7.91,6.13-8.94,10.5-8.04,34.48,7.04,64.15-4.58,88.64-26.68,14.62-13.2,30.1-27.14,41.15-47.88-13.48,7.78-25.95,9.4-38.21,11.72-23.06,4.36-54.67-10.37-64.04-29.64-10.4-21.4,6.6-49.07,30.45-49.56,20.16-.41,25.22,2.19,29.67,15.27,1.92,5.63,2.43,10.79-2.54,15.61-5.18,5.03-11.35,4.07-17.11,3.21-4.43-.66-3.88-6.03-4.82-9.41-1.24-4.49,1.94-7.55,5.61-9.16,2.45-1.07,5.53-.7,8.98-1.04-1.88-7.75-8.77-6.81-13.29-7.51-14.17-2.2-27.58,8.16-30.99,22.76-2.96,12.72,5.79,28.49,19.06,32.33,30.87,8.93,59.61,2.11,86.49-13.88,20.8-12.37,40.04-27.37,62.23-37.42,39.64-17.96,100.57-19.76,137.42,13.37,14.32,12.88,23.54,27.45,28.42,45.52,1.09,4.04,2.14,8.27,4.23,11.82,8.71,14.8,8.63,31.51,11.02,48.6,8.98-5.76,15.04-14.18,23.17-20.25,12.05-9,24.94-16.65,39.05-20.43,18.51-4.96,25.45-19.04,33.13-35.11-23.66,14-42.89,5.33-60.29-11.16,7.98-10.08,20.04-11.94,33.2-9.54,7.19,1.31,14.17,3.79,21.31,5.43,1.78.41,4.51,1.17,5.36-1.54.28-.9-.88-2.62-1.82-3.48-7.91-7.21-11.32-22.14-7.18-33.09,3.72-9.82,8-19.44,11.41-29.37,1.39-4.06,2.26-7.29,7.44-7.16,5.35.14,3.41,4.4,4.33,7,4.64,13.11,13.21,24.81,12.55,39.81-.4,9.24-7.13,16.63-6.14,26.96,16.74-5.99,32.08-3.04,46.31,7.45,4.8,3.53,7.29,7.05.51,9.48-11.14,3.99-22.38,8.56-34.42,8.89-6,.16-11.98-1.87-20.09-6.21,7.58,15,15.22,24.66,28.42,28.79,22.96,7.19,43.08,18.98,59.4,36.9.87.96,2.07,1.63,4.33,3.36.54-28.42,11.66-52.59,21.91-76.89,9.32-22.1,27.72-35.91,49.07-44.15,47.09-18.18,91.53-9.33,133.63,16.6,16.45,10.13,31.82,21.94,49.16,30.71,13.12,6.63,26.51,10.47,41.36,10.63,11.79.13,23.14,3.81,35.17-1.9,12.42-5.89,21.82-21.31,17.87-34.16-4.83-15.69-19.54-24.97-34.01-20.77-3.23.94-8.35,0-9.5,5.55,1.25,3.04,4.13,1.49,6.29,1.88,5.8,1.05,9.21,4.37,8.04,10.29-.96,4.86-1.85,9.95-9.61,9.47-7.51-.47-13.52-2.15-15.82-9.67-2.36-7.7,4.24-20.03,11.53-22.9,19.55-7.68,40.93.51,48.94,18.76,8.35,19.01.51,40.94-19.07,49.42-26.64,11.55-53.6,11.67-80.29-1.65-1.31,6.51,4.2,9.53,7.08,12.82,19.53,22.27,38.79,44.9,67.56,56.4,16.41,6.56,33.24,6.13,50.12,4.99,7.08-.48,11.12-1.16,12.75,8.01,5.65,31.72,28.99,48.51,56.63,52.47,16.79,2.4,38.82-7.37,44.75-19.96,5.65-12,4.26-34.83-7.3-46.59-6.93-7.05-15.17-7.25-23.55-4.54-11.6,3.75-21.42,11.08-23.04,23.46-.91,6.98,2.99,15.02,10.55,19.38,4.7,2.72,9.5,3.86,13.26-.66,2.23-2.68,3.96-3.87,6.93-2.09,1.53.92,3.11,2.67,2.11,4.36-1.31,2.21-2.12,4.52-5.4,5.84-14.63,5.89-32.42-3.37-34.92-18.79-3.16-19.52,13.17-38.51,33.11-39.6,14.71-.81,27.47,1.16,34.37,17.03ZM923.7,610.63c-2.47,14.67,3.88,28.03,12.46,41.02,6.42,9.73,17.5,7.43,25.68,11.64,10.97,5.64,17.9,1.45,24.56-5.2,13.01-12.98,17.29-30.12,20.2-47.49,1.3-7.76-.87-14.79-8.95-18.5-2.45-1.13-3.22-3.53-4.42-5.71-1.51-2.75-2.58-5.61.58-7.37,2.55-1.42,4.98-.12,6.91,2.43,2.57,3.38,6.15,5.12,10.39,6.47,14.59,4.66,28.02.61,40.53-5.85,12.44-6.42,27.79-11.75,24.07-31.18-.1-.54.62-1.23.94-1.85,6.7-12.82-3.06-24.13-3.5-36.31-.05-1.34-2.07-2.83-3.46-3.86-9.65-7.14-19.98-13.86-31.6-16.17-13.57-2.69-28.43-6.35-39.06,7.95-1.12,1.51-2.77,2.16-4.6.73-1.48-1.16-2.72-2.59-2.34-4.48.7-3.42,1.94-6.3,5.49-8.26,7.19-3.96,10.16-10.59,9.35-18.69-1.53-15.28-6.97-29.21-15.3-42.01-10.71-16.45-42.66-16.78-54.36-1-16.69,22.51-17.69,46.76-8.54,72.1,1.68,4.64.01,7.64-2.48,10.26-3.5,3.69-5.72-.4-7.67-2.5-10.51-11.32-23.62-14.35-38.48-13.21-21.72,1.67-45.62,26.43-43.84,46.72,1.93,21.94,14.55,36.49,34.95,42.99,16.89,5.38,33.6,3.89,46.86-10.1,2.35-2.48,4.61-5.43,7.85-2.67,2.76,2.35,5.49,5.67,2.65,9.99-5.82,8.83-5.18,18.8-4.89,30.12ZM916.26,493.11c-3.29-26.25-3.12-51.75,16.27-74.15-42.61,9.42-80.77,51.04-86.91,82.3,21.87-17.5,45.47-18.7,70.64-8.15ZM931.94,659.94c-19.7-21.97-19-47.65-15.71-74.78-25.96,15.12-49.21,9.04-71.62-7.53,8.17,35.69,52.37,77.53,87.33,82.32ZM996.45,660.37c36.59-8.12,74.45-48.25,80.4-84.5-18.99,13.14-38.74,23.17-61.78,20.74,2.42,24.02-6.64,43.8-18.61,63.76ZM1077.93,505.24c-12.77-43.74-38.71-71.94-81.56-86.76,12.47,20.69,21.11,40.8,18.97,64.64,23.33-1.98,42.88,7.58,62.59,22.12ZM673.77,572.68c13.14-18.51,30.52-26.56,49.47-33.52-19.94-5.43-35.95-15.98-49.75-32.24,1.29,12.38-7.87,18.33-11.97,26.72-2.08,4.26-2.63,6.45-.12,11.14,4.55,8.48,12.8,15.36,12.37,27.9ZM1246.43,505.56c-13.79,16.69-29.88,26.86-49.28,32.1,31.85,14.43,34.06,15.89,49.1,32.98-1.16-11.37,6.91-17.94,11.56-25.77,3.5-5.91,2.34-8.83-.36-13.9-4.15-7.81-12.37-13.7-11.01-25.42ZM1088.85,565.51c15.14-14.34,34.16-20.52,53.11-27.54-19.31-6.25-37.79-13.19-54.27-30.27,3.15,21.12,8.67,39.36,1.16,57.81ZM831.95,509.67c-16.07,16.73-34.65,23.61-54.12,29.76,19,7.04,37.94,13.5,53.74,29.1-6.12-19.78-5.69-38.02.38-58.86Z"/>
</svg>