<?xml version="1.0" encoding="UTF-8"?>
<svg id="Layer_1" data-name="Layer 1" xmlns="http://www.w3.org/2000/svg" viewBox="0 0 1920 1080">
  <defs>
    <style>
      .cls-1 {
        fill: #e9dcd2;
        stroke-width: 0px;
      }
    </style>
  </defs>
  <path class="cls-1" d="M1170.24,673.5c-14.9-24.43-8.82-47.75,2.08-71.83-39.58-19.07-79.7-38.4-119.82-57.72.17-2.26.33-4.52.5-6.78,39.58-19.13,79.17-38.25,118.58-57.29-10.77-22.96-16.27-47.38-.14-72.8,33.74,54.33,85.97,77.99,144.94,87.51,85.03,13.74,169.61.85,249.58-25.1,54.64-17.74,105.65-50.47,153.99-82.89,70.5-47.29,133.89-103.62,179.95-176.65,5.74-9.1,11.08-18.45,16.56-27.7,1.26-2.12,2.37-4.32,3.55-6.49-1.3-1.59-2.6-3.18-3.9-4.78-6.27,5.1-14.54,8.99-18.5,15.49-77.26,126.92-191.75,209.81-324.95,267.31-53.18,22.96-112.2,33.01-170.98,14.12-47.95-15.41-64.64-52.5-66.6-94.66-1.62-34.67,50.75-72.93,80.8-60.45,11.94,4.96,24.2,12.53,32.51,22.18,17.59,20.42,6.75,54.38-19.47,66.89-3.27,1.56-6.39,3.46-10.2,5.55,14.31,8.04,32.96,1.62,44.27-14.19,17.67-24.72,7.34-69.44-19.6-83.88-43.41-23.27-63.19-13.11-95.27,13.19-33.53,27.49-32.51,62.01-18.02,97.08,12.49,30.22,34.42,49.88,65.27,61.04-79.64,16.9-203.56-21.6-216.43-101.68-26.85,8.33-38.12,50.48-26.54,89.63-42,23.02-83.1,45.55-124.21,68.08.22,2.34.45,4.67.67,7.01,41.67,20.36,75.35,55.83,126.14,62.24-17.8,37.2-5.79,68.97,19.39,99.88,2.55-3.77,5.98-6.8,6.87-10.44,10.78-44.06,44.39-64.21,82.49-80.27,43.57-18.37,89.04-21.35,130.01-18.69-16.35,13.97-41.04,27.03-53.72,47.51-29.23,47.23-33.86,92.04,29.52,131.23,24.56,15.19,46.17,13.38,67.64-.64,20.68-13.5,37.67-30.98,35.77-59.13-1.75-25.94-24.64-46.42-49.1-44.08,8.4,9.03,17.91,17.71,25.55,27.81,14.35,18.97,10.29,41.64-8.97,55.43-30.28,21.68-46.19,22.31-67.75,7.19-36.92-25.9-42.26-44.73-32.97-82.09,14.94-60.03,83.79-82.46,130.62-73.44,23.73,4.57,48.27,5.59,71.57,11.6,60.6,15.63,114.27,46.82,164.69,82.42,76.7,54.16,147.29,115.1,194.29,198.8,2.67,4.76,10.29,6.75,15.61,10.03-1.32-5.33-1.65-11.17-4.12-15.9-33-63.18-83.91-110.43-136.92-156.44-55.42-48.11-116.91-86.44-183.69-115.16-33.91-14.59-71.5-21.73-108.11-28.63-34.47-6.5-69.8-11.04-104.82-11.52-65.14-.89-126.79,13.5-178.27,56.58-11.09,9.29-19.13,22.22-30.31,35.54Z"/>
</svg>